<mxfile host="app.diagrams.net" agent="Mozilla/5.0 (Macintosh; Intel Mac OS X 10.15; rv:131.0) Gecko/20100101 Firefox/131.0" version="24.7.17">
  <diagram id="prtHgNgQTEPvFCAcTncT" name="Page-1">
    <mxGraphModel dx="3034" dy="1198" grid="1" gridSize="10" guides="1" tooltips="1" connect="1" arrows="1" fold="1" page="1" pageScale="1" pageWidth="1169" pageHeight="827" math="0" shadow="0">
      <root>
        <mxCell id="0" />
        <mxCell id="1" parent="0" />
        <mxCell id="dNxyNK7c78bLwvsdeMH5-19" value="Utvecklingsfas" style="swimlane;html=1;childLayout=stackLayout;resizeParent=1;resizeParentMax=0;horizontal=0;startSize=20;horizontalStack=0;" parent="1" vertex="1">
          <mxGeometry x="-1169" y="400" width="1510" height="652.39" as="geometry" />
        </mxCell>
        <mxCell id="dNxyNK7c78bLwvsdeMH5-20" value="Spelutveckling" style="swimlane;html=1;startSize=20;horizontal=0;" parent="dNxyNK7c78bLwvsdeMH5-19" vertex="1">
          <mxGeometry x="20" width="1490" height="242.39" as="geometry" />
        </mxCell>
        <mxCell id="benG8j_t6gKuDIGaQDt3-3" value="" style="edgeStyle=orthogonalEdgeStyle;rounded=0;orthogonalLoop=1;jettySize=auto;html=1;" parent="dNxyNK7c78bLwvsdeMH5-20" target="benG8j_t6gKuDIGaQDt3-2" edge="1">
          <mxGeometry relative="1" as="geometry">
            <mxPoint x="134" y="174.8571428571429" as="sourcePoint" />
          </mxGeometry>
        </mxCell>
        <mxCell id="benG8j_t6gKuDIGaQDt3-5" value="" style="edgeStyle=orthogonalEdgeStyle;rounded=0;orthogonalLoop=1;jettySize=auto;html=1;" parent="dNxyNK7c78bLwvsdeMH5-20" source="benG8j_t6gKuDIGaQDt3-2" target="benG8j_t6gKuDIGaQDt3-4" edge="1">
          <mxGeometry relative="1" as="geometry" />
        </mxCell>
        <mxCell id="benG8j_t6gKuDIGaQDt3-2" value="Kravanalys" style="whiteSpace=wrap;html=1;rounded=0;" parent="dNxyNK7c78bLwvsdeMH5-20" vertex="1">
          <mxGeometry x="164" y="162.39" width="90" height="25" as="geometry" />
        </mxCell>
        <mxCell id="benG8j_t6gKuDIGaQDt3-4" value="Skicka iväg krav till säljavdelning" style="whiteSpace=wrap;html=1;rounded=0;" parent="dNxyNK7c78bLwvsdeMH5-20" vertex="1">
          <mxGeometry x="284" y="157.39" width="115" height="35" as="geometry" />
        </mxCell>
        <mxCell id="benG8j_t6gKuDIGaQDt3-10" value="Utvecklare sammanställer krav + kommentarer" style="rounded=0;whiteSpace=wrap;html=1;" parent="dNxyNK7c78bLwvsdeMH5-20" vertex="1">
          <mxGeometry x="414" y="148.64" width="120" height="52.5" as="geometry" />
        </mxCell>
        <mxCell id="benG8j_t6gKuDIGaQDt3-20" value="" style="edgeStyle=orthogonalEdgeStyle;rounded=0;orthogonalLoop=1;jettySize=auto;html=1;" parent="dNxyNK7c78bLwvsdeMH5-20" source="benG8j_t6gKuDIGaQDt3-16" target="benG8j_t6gKuDIGaQDt3-19" edge="1">
          <mxGeometry relative="1" as="geometry" />
        </mxCell>
        <mxCell id="benG8j_t6gKuDIGaQDt3-16" value="Spelutvecklare implementerar krav och förändringar" style="whiteSpace=wrap;html=1;rounded=0;" parent="dNxyNK7c78bLwvsdeMH5-20" vertex="1">
          <mxGeometry x="981" y="144.89" width="120" height="60" as="geometry" />
        </mxCell>
        <mxCell id="benG8j_t6gKuDIGaQDt3-22" value="" style="edgeStyle=orthogonalEdgeStyle;rounded=0;orthogonalLoop=1;jettySize=auto;html=1;" parent="dNxyNK7c78bLwvsdeMH5-20" source="benG8j_t6gKuDIGaQDt3-19" target="benG8j_t6gKuDIGaQDt3-21" edge="1">
          <mxGeometry relative="1" as="geometry" />
        </mxCell>
        <mxCell id="benG8j_t6gKuDIGaQDt3-19" value="Speltestning" style="whiteSpace=wrap;html=1;rounded=0;" parent="dNxyNK7c78bLwvsdeMH5-20" vertex="1">
          <mxGeometry x="1170" y="154.89" width="99" height="40" as="geometry" />
        </mxCell>
        <mxCell id="benG8j_t6gKuDIGaQDt3-24" value="" style="edgeStyle=orthogonalEdgeStyle;rounded=0;orthogonalLoop=1;jettySize=auto;html=1;entryX=0;entryY=0.5;entryDx=0;entryDy=0;" parent="dNxyNK7c78bLwvsdeMH5-20" source="benG8j_t6gKuDIGaQDt3-21" target="1ozGzpsq_Gwrm7K7Cgik-36" edge="1">
          <mxGeometry relative="1" as="geometry">
            <mxPoint x="1370" y="174.89655172413813" as="targetPoint" />
            <Array as="points">
              <mxPoint x="1380" y="175" />
            </Array>
          </mxGeometry>
        </mxCell>
        <mxCell id="1ozGzpsq_Gwrm7K7Cgik-37" style="edgeStyle=orthogonalEdgeStyle;rounded=0;orthogonalLoop=1;jettySize=auto;html=1;entryX=0.5;entryY=0;entryDx=0;entryDy=0;" edge="1" parent="dNxyNK7c78bLwvsdeMH5-20" source="benG8j_t6gKuDIGaQDt3-21" target="benG8j_t6gKuDIGaQDt3-16">
          <mxGeometry relative="1" as="geometry">
            <Array as="points">
              <mxPoint x="1325" y="125" />
              <mxPoint x="1041" y="125" />
            </Array>
          </mxGeometry>
        </mxCell>
        <mxCell id="1ozGzpsq_Gwrm7K7Cgik-38" value="Testning lyckas ej" style="edgeLabel;html=1;align=center;verticalAlign=middle;resizable=0;points=[];" vertex="1" connectable="0" parent="1ozGzpsq_Gwrm7K7Cgik-37">
          <mxGeometry x="0.1219" y="-1" relative="1" as="geometry">
            <mxPoint as="offset" />
          </mxGeometry>
        </mxCell>
        <mxCell id="benG8j_t6gKuDIGaQDt3-21" value="X" style="rhombus;whiteSpace=wrap;html=1;" parent="dNxyNK7c78bLwvsdeMH5-20" vertex="1">
          <mxGeometry x="1310" y="159.89" width="30" height="30" as="geometry" />
        </mxCell>
        <mxCell id="1ozGzpsq_Gwrm7K7Cgik-35" value="Nya idéer" style="ellipse;whiteSpace=wrap;html=1;aspect=fixed;" vertex="1" parent="dNxyNK7c78bLwvsdeMH5-20">
          <mxGeometry x="90" y="158.39" width="41.39" height="41.39" as="geometry" />
        </mxCell>
        <mxCell id="1ozGzpsq_Gwrm7K7Cgik-36" value="Testning lyckas" style="ellipse;whiteSpace=wrap;html=1;aspect=fixed;" vertex="1" parent="dNxyNK7c78bLwvsdeMH5-20">
          <mxGeometry x="1389" y="145.89" width="59" height="59" as="geometry" />
        </mxCell>
        <mxCell id="1ozGzpsq_Gwrm7K7Cgik-6" value="Utvecklingschef" style="swimlane;html=1;startSize=20;horizontal=0;" vertex="1" parent="dNxyNK7c78bLwvsdeMH5-19">
          <mxGeometry x="20" y="242.39" width="1490" height="240" as="geometry" />
        </mxCell>
        <mxCell id="1ozGzpsq_Gwrm7K7Cgik-7" value="" style="edgeStyle=orthogonalEdgeStyle;rounded=0;orthogonalLoop=1;jettySize=auto;html=1;" edge="1" parent="1ozGzpsq_Gwrm7K7Cgik-6" source="1ozGzpsq_Gwrm7K7Cgik-8">
          <mxGeometry relative="1" as="geometry">
            <mxPoint x="164" y="174.9230769230769" as="targetPoint" />
          </mxGeometry>
        </mxCell>
        <mxCell id="benG8j_t6gKuDIGaQDt3-11" value="Utvecklingschef kontrollerar sammanställning " style="whiteSpace=wrap;html=1;rounded=0;" parent="1ozGzpsq_Gwrm7K7Cgik-6" vertex="1">
          <mxGeometry x="569" y="107.61000000000001" width="120" height="60" as="geometry" />
        </mxCell>
        <mxCell id="benG8j_t6gKuDIGaQDt3-13" value="Utvecklingschef gör övergripande utvecklingsplan" style="whiteSpace=wrap;html=1;rounded=0;" parent="1ozGzpsq_Gwrm7K7Cgik-6" vertex="1">
          <mxGeometry x="799" y="107.61000000000001" width="120" height="60" as="geometry" />
        </mxCell>
        <mxCell id="benG8j_t6gKuDIGaQDt3-14" value="" style="edgeStyle=orthogonalEdgeStyle;rounded=0;orthogonalLoop=1;jettySize=auto;html=1;" parent="1ozGzpsq_Gwrm7K7Cgik-6" source="benG8j_t6gKuDIGaQDt3-11" target="benG8j_t6gKuDIGaQDt3-13" edge="1">
          <mxGeometry relative="1" as="geometry" />
        </mxCell>
        <mxCell id="dNxyNK7c78bLwvsdeMH5-21" value="Säljavdelning/ledningsgrupp" style="swimlane;html=1;startSize=20;horizontal=0;" parent="dNxyNK7c78bLwvsdeMH5-19" vertex="1">
          <mxGeometry x="20" y="482.39" width="1490" height="170" as="geometry" />
        </mxCell>
        <mxCell id="benG8j_t6gKuDIGaQDt3-6" value="Säljavdelningen/ledningsgrupp kommenterar kraven" style="whiteSpace=wrap;html=1;rounded=0;" parent="dNxyNK7c78bLwvsdeMH5-21" vertex="1">
          <mxGeometry x="50" y="70" width="130" height="60" as="geometry" />
        </mxCell>
        <mxCell id="benG8j_t6gKuDIGaQDt3-9" style="edgeStyle=orthogonalEdgeStyle;rounded=0;orthogonalLoop=1;jettySize=auto;html=1;" parent="dNxyNK7c78bLwvsdeMH5-19" source="benG8j_t6gKuDIGaQDt3-6" target="benG8j_t6gKuDIGaQDt3-10" edge="1">
          <mxGeometry relative="1" as="geometry">
            <mxPoint x="450" y="250" as="targetPoint" />
          </mxGeometry>
        </mxCell>
        <mxCell id="benG8j_t6gKuDIGaQDt3-18" style="edgeStyle=orthogonalEdgeStyle;rounded=0;orthogonalLoop=1;jettySize=auto;html=1;exitX=0.5;exitY=1;exitDx=0;exitDy=0;entryX=0.5;entryY=0;entryDx=0;entryDy=0;" parent="dNxyNK7c78bLwvsdeMH5-19" source="benG8j_t6gKuDIGaQDt3-4" target="benG8j_t6gKuDIGaQDt3-6" edge="1">
          <mxGeometry relative="1" as="geometry">
            <Array as="points">
              <mxPoint x="361" y="260" />
              <mxPoint x="135" y="260" />
            </Array>
          </mxGeometry>
        </mxCell>
        <mxCell id="benG8j_t6gKuDIGaQDt3-12" value="" style="edgeStyle=orthogonalEdgeStyle;rounded=0;orthogonalLoop=1;jettySize=auto;html=1;" parent="dNxyNK7c78bLwvsdeMH5-19" source="benG8j_t6gKuDIGaQDt3-10" target="benG8j_t6gKuDIGaQDt3-11" edge="1">
          <mxGeometry relative="1" as="geometry" />
        </mxCell>
        <mxCell id="benG8j_t6gKuDIGaQDt3-17" value="" style="edgeStyle=orthogonalEdgeStyle;rounded=0;orthogonalLoop=1;jettySize=auto;html=1;" parent="dNxyNK7c78bLwvsdeMH5-19" source="benG8j_t6gKuDIGaQDt3-13" target="benG8j_t6gKuDIGaQDt3-16" edge="1">
          <mxGeometry relative="1" as="geometry" />
        </mxCell>
      </root>
    </mxGraphModel>
  </diagram>
</mxfile>
